<svg
	xmlns="http://www.w3.org/2000/svg" style="display: none;">
	<symbol id="architect" viewBox="0 0 512 512">
		<title>architect</title>
		<g>
			<path d="m347.117 116v-50.517c0-22.874-18.543-41.417-41.417-41.417h-28.992-41.417-28.99c-22.874 0-41.417 18.543-41.417 41.417l.001 50.517z" fill="#eaa96a"/>
			<path d="m276.708 116h-41.417v-100.5c0-4.418 3.582-8 8-8h25.417c4.418 0 8 3.582 8 8z" fill="#efd27c"/>
			<path d="m305.7 24.066h-23c22.874 0 41.417 18.543 41.417 41.417v50.517h23v-50.517c0-22.874-18.543-41.417-41.417-41.417z" fill="#e5935d"/>
			<path d="m173.167 206.301h-16.567c-9.149 0-16.567-7.417-16.567-16.567v-33.134c0-9.149 7.417-16.567 16.567-16.567h16.567 165.666 16.567c9.15 0 16.567 7.417 16.567 16.567v33.134c0 9.149-7.417 16.567-16.567 16.567h-16.567z" fill="#ebb39a"/>
			<path d="m206.299 256v115.968h99.4v-115.953z" fill="#ebb39a"/>
			<path d="m173.167 132.533.001 73.77c0 45.747 37.085 82.832 82.832 82.832s82.832-37.085 82.832-82.832v-73.77z" fill="#f4dabd"/>
			<path d="m371.967 123.467c0-9.15-7.417-16.567-16.567-16.567h-198.8c-9.149 0-16.567 7.417-16.567 16.567v8.283c0 4.575 3.708 8.283 8.283 8.283h215.366c4.575 0 8.283-3.709 8.283-8.283v-8.283z" fill="#efd27c"/>
			<path d="m355.4 106.9h-23c9.15 0 16.567 7.417 16.567 16.567v8.283c0 4.575-3.708 8.283-8.283 8.283h23c4.575 0 8.283-3.708 8.283-8.283v-8.283c0-9.15-7.418-16.567-16.567-16.567z" fill="#eabc73"/>
			<path d="m57.2 322.267c0-18.299 14.834-33.134 33.133-33.134h41.417c4.575 0 8.283 3.708 8.283 8.283v29.851h-82.832z" fill="#8cbdf9"/>
			<path d="m371.966 327.267v-29.851c0-4.575 3.709-8.283 8.283-8.283h41.417c18.299 0 33.134 14.834 33.134 33.134v5z" fill="#8cbdf9"/>
			<path d="m421.667 289.133h-23c18.299 0 33.134 14.834 33.134 33.134v5h23v-5c-.001-18.3-14.835-33.134-33.134-33.134z" fill="#73a2da"/>
			<path d="m57.2 322.266h397.6v182.234h-397.6z" fill="#a6ccfb"/>
			<path d="m431.8 322.266h23v182.234h-23z" fill="#8cbdf9"/>
			<g>
				<path d="m472.5 405.1h-18.267c-8.837 0-16 7.163-16 16v75.4c0 4.418 3.582 8 8 8h42.267c8.836 0 16-7.163 16-16v-51.4c0-17.673-14.327-32-32-32z" fill="#f4dabd"/>
				<path d="m472.5 405.1h-18.267c-.658 0-1.302.052-1.939.129 16.364 1.417 29.206 15.14 29.206 31.871v51.4c0 8.837-7.163 16-16 16h23c8.837 0 16-7.163 16-16v-51.4c0-17.673-14.327-32-32-32z" fill="#ebb39a"/>
			</g>
			<g>
				<path d="m39.5 405.1h18.267c8.837 0 16 7.163 16 16v75.4c0 4.418-3.582 8-8 8h-42.267c-8.836 0-16-7.163-16-16v-51.4c0-17.673 14.327-32 32-32z" fill="#f4dabd"/>
			</g>
		</g>
		<g fill="#131213">
			<path d="m256 230.369c8.551 0 16.533-4.606 20.832-12.022 2.077-3.583.856-8.172-2.728-10.249-3.583-2.078-8.172-.857-10.25 2.727-1.624 2.803-4.634 4.544-7.854 4.544s-6.229-1.741-7.854-4.544c-2.077-3.585-6.665-4.806-10.25-2.727-3.583 2.077-4.805 6.666-2.728 10.249 4.299 7.416 12.281 12.022 20.832 12.022z"/>
			<path d="m222.867 188.95c4.142 0 7.5-3.357 7.5-7.5v-8.283c0-4.143-3.358-7.5-7.5-7.5s-7.5 3.357-7.5 7.5v8.283c0 4.143 3.358 7.5 7.5 7.5z"/>
			<path d="m289.133 188.95c4.142 0 7.5-3.357 7.5-7.5v-8.283c0-4.143-3.358-7.5-7.5-7.5s-7.5 3.357-7.5 7.5v8.283c0 4.143 3.358 7.5 7.5 7.5z"/>
			<path d="m472.5 397.6h-10.2v-75.334-.001c-.001-22.404-18.229-40.632-40.633-40.632h-41.418c-8.703 0-15.783 7.08-15.783 15.783v17.35h-10.628c-4.142 0-7.5 3.357-7.5 7.5s3.358 7.5 7.5 7.5h93.462v68.879c-9.584 2.965-16.567 11.909-16.567 22.455v75.4c0 .169.02.332.025.5h-275.723c-4.142 0-7.5 3.357-7.5 7.5s3.358 7.5 7.5 7.5h333.465c12.958 0 23.5-10.542 23.5-23.5v-51.4c0-21.781-17.72-39.5-39.5-39.5zm-93.034-100.184c0-.432.352-.783.783-.783h41.418c11.525 0 21.296 7.647 24.511 18.133h-66.712zm117.534 191.084c0 4.686-3.813 8.5-8.5 8.5h-41.983-.283c-.276 0-.5-.225-.5-.5v-17.634h25.632c4.142 0 7.5-3.357 7.5-7.5s-3.358-7.5-7.5-7.5h-25.632v-18.133h25.632c4.142 0 7.5-3.357 7.5-7.5s-3.358-7.5-7.5-7.5h-25.632v-9.633c0-4.687 3.813-8.5 8.5-8.5h18.266c13.509 0 24.5 10.99 24.5 24.5z"/>
			<path d="m323.837 329.766c4.142 0 7.5-3.357 7.5-7.5s-3.358-7.5-7.5-7.5h-10.638v-38.599c18.399-15.092 30.751-37.293 32.82-62.367h9.38c13.271 0 24.067-10.796 24.067-24.066v-33.134c0-5.176-1.648-9.972-4.44-13.902 2.742-2.841 4.44-6.697 4.44-10.948v-8.283c0-13.271-10.796-24.066-24.067-24.066h-.783v-33.917c0-26.974-21.944-48.918-48.917-48.918h-21.492v-1.066c0-8.547-6.953-15.5-15.5-15.5h-25.417c-8.547 0-15.5 6.953-15.5 15.5v1.065h-21.491c-26.973 0-48.918 21.944-48.918 48.918l.001 33.917h-.782c-13.27 0-24.066 10.796-24.066 24.066v8.283c0 4.251 1.697 8.107 4.44 10.948-2.791 3.93-4.44 8.725-4.44 13.901v33.134c0 13.271 10.796 24.067 24.066 24.067h9.382c2.07 25.072 14.42 47.272 32.817 62.363v38.602h-51.265v-17.35c0-8.703-7.08-15.783-15.783-15.783h-41.418c-22.405 0-40.632 18.227-40.633 40.632v.001 75.336h-10.2c-21.78 0-39.5 17.72-39.5 39.5v51.4c0 12.958 10.542 23.5 23.5 23.5h101.534c4.142 0 7.5-3.357 7.5-7.5s-3.358-7.5-7.5-7.5h-43.793c.005-.168.025-.331.025-.5v-75.4c0-10.545-6.982-19.49-16.566-22.455v-68.879zm40.63-140.033c0 4.999-4.067 9.066-9.067 9.066h-9.067v-51.267h9.087c4.99.011 9.046 4.073 9.046 9.066v33.135zm-58.767-158.168c18.702 0 33.917 15.216 33.917 33.918v33.917h-18.133v-9.066c0-4.143-3.358-7.5-7.5-7.5s-7.5 3.357-7.5 7.5v9.066h-22.275v-67.835zm-62.909-16.065c0-.275.224-.5.5-.5h25.417c.276 0 .5.225.5.5v83.9h-26.417zm-70.408 49.983c0-18.702 15.215-33.918 33.918-33.918h21.491v67.835h-22.275v-9.066c0-4.143-3.358-7.5-7.5-7.5s-7.5 3.357-7.5 7.5v9.066h-18.132zm-24.849 57.984c0-4.999 4.067-9.066 9.066-9.066h198.8c5 0 9.067 4.067 9.067 9.066v8.283c0 .432-.352.783-.783.783h-215.367c-.432 0-.783-.352-.783-.783zm0 66.266v-33.133c0-4.999 4.067-9.066 9.066-9.066h9.067l.001 51.268h-9.068c-4.999-.001-9.066-4.069-9.066-9.069zm33.134 16.571-.001-58.77h150.666v58.77c0 41.538-33.794 75.332-75.333 75.332s-75.332-33.794-75.332-75.332zm33.131 79.847c12.604 6.688 26.967 10.485 42.202 10.485 15.234 0 29.596-3.796 42.199-10.483v28.613h-84.4v-28.615zm-123.466 10.482h41.418c.432 0 .783.352.783.783v17.35h-66.712c3.215-10.486 12.986-18.133 24.511-18.133zm-24.066 134.1h-25.632c-4.142 0-7.5 3.357-7.5 7.5s3.358 7.5 7.5 7.5h25.632v18.133h-25.632c-4.142 0-7.5 3.357-7.5 7.5s3.358 7.5 7.5 7.5h25.632v17.634c0 .275-.224.5-.5.5h-.283-41.984c-4.687 0-8.5-3.814-8.5-8.5v-51.4c0-13.51 10.991-24.5 24.5-24.5h18.267c4.687 0 8.5 3.813 8.5 8.5z"/>
		</g>
	</symbol>
	<symbol id="buildings" viewBox="0 0 64 64">
		<title>buildings</title>
		<g>
			<g>
				<path d="m14 2h8v4h-8z" fill="#ffc729"/>
			</g>
			<g>
				<path d="m24 6v6h-12v-6h2 8z" fill="#fcd770"/>
			</g>
			<g>
				<path d="m28 12v8h-3-14-3v-8h4 12z" fill="#ffeaa7"/>
			</g>
			<g>
				<path d="m8 30.35v-10.35h3 14 3v6h-4v4 1.54c-1.06-.96-2.46-1.54-4-1.54h-10c-.7 0-1.37.12-2 .35z" fill="#ffeaa7"/>
			</g>
			<g>
				<path d="m52 6v10h-12v-8l2-.33 4-.67 4-.67z" fill="#ccd1d9"/>
			</g>
			<g>
				<path d="m54 16v21.14l-6 .86v7.33l-4-5.33-4 5.33v-15.33-4h-2v-10h2 12z" fill="#e6e9ed"/>
			</g>
			<g>
				<path d="m40 26v4h-16v-4h4 10z" fill="#ecc19c"/>
			</g>
			<g>
				<path d="m24 30h16v15.33l-2 2.67v14h-10v-22-4h-2c0-1.77-.77-3.37-2-4.46z" fill="#f0d0b4"/>
			</g>
			<g>
				<path d="m62 62h-12v-14l-2-2.67v-7.33l6-.86 8-1.14z" fill="#ecc19c"/>
			</g>
			<g>
				<path d="m48 45.33 2 2.67h-12l2-2.67 4-5.33z" fill="#fcd770"/>
			</g>
			<g>
				<path d="m38 48h12v14h-12z" fill="#ffeaa7"/>
			</g>
			<g>
				<path d="m26 36h-22c0-2.61 1.67-4.84 4-5.65.63-.23 1.3-.35 2-.35h10c1.54 0 2.94.58 4 1.54 1.23 1.09 2 2.69 2 4.46z" fill="#aab2bd"/>
			</g>
			<g>
				<path d="m28 36v4h-26v-4h2 22z" fill="#ccd1d9"/>
			</g>
			<g>
				<path d="m2 40h26v22h-26z" fill="#e6e9ed"/>
			</g>
			<g>
				<path d="m6 44h18v18h-18z" fill="#69d6f4"/>
			</g>
		</g>
		<g>
			<path d="m41 51h2v8h-2z"/>
			<path d="m45 51h2v8h-2z"/>
			<path d="m55 35.99v-20.99h-2v-10.181l-2 .333v-2.152h-2v2.486l-2 .333v-4.819h-2v5.153l-2 .333v-3.486h-2v3.819l-2 .333v7.848h-2v10h-8v-14h-4v-6h-2v-4h-10v4h-2v6h-4v18.685c-2.072.989-3.581 2.962-3.92 5.315h-2.08v28h62v-28.153zm-14-27.143 10-1.667v7.82h-10zm-2 8.153h14v19.276l-6 .857v5.201l-3-4-3 4v-17.334h-2zm0 12h-14v-2h14zm0 20h10v12h-10zm1-2 4-5.333 4 5.333zm-25-44h6v2h-6zm-2 4h10v4h-10zm-4 6h18v12h-4v4.685c-.911-.434-1.926-.685-3-.685h-10c-.34 0-.672.033-1 .08zm1 18h10c2.414 0 4.434 1.721 4.899 4h-19.798c.465-2.279 2.485-4 4.899-4zm17 6v2h-24v-2zm-4 18h-4v-4h4zm-6 0h-4v-4h4zm0 2v4h-4v-4zm2 0h4v4h-4zm4-8h-4v-4h4zm-6 0h-4v-4h4zm-6 0h-4v-4h4zm-4 2h4v4h-4zm0 6h4v4h-4zm18 4v-18h-20v18h-2v-20h24v20zm1.92-26c-.216-1.502-.906-2.853-1.92-3.889v-.111h14v14l-2 2.667v13.333h-8v-26zm34.08 26h-10v-13.333l-2-2.667v-6.133l12-1.714z"/>
			<path d="m31 45h2v2h-2z"/>
			<path d="m31 53h2v2h-2z"/>
			<path d="m31 57h2v2h-2z"/>
			<path d="m31 41h2v2h-2z"/>
			<path d="m31 49h2v2h-2z"/>
			<path d="m31 33h2v2h-2z"/>
			<path d="m31 37h2v2h-2z"/>
			<path d="m35 41h2v2h-2z"/>
			<path d="m35 37h2v2h-2z"/>
			<path d="m35 33h2v2h-2z"/>
			<path d="m57 57h2v2h-2z"/>
			<path d="m57 49h2v2h-2z"/>
			<path d="m57 45h2v2h-2z"/>
			<path d="m57 41h2v2h-2z"/>
			<path d="m57 53h2v2h-2z"/>
			<path d="m53 57h2v2h-2z"/>
			<path d="m53 53h2v2h-2z"/>
			<path d="m53 41h2v2h-2z"/>
			<path d="m53 49h2v2h-2z"/>
			<path d="m53 45h2v2h-2z"/>
			<path d="m19 15h2v2h-2z"/>
			<path d="m11 15h2v2h-2z"/>
			<path d="m15 15h2v2h-2z"/>
			<path d="m23 15h2v2h-2z"/>
			<path d="m11 19h2v2h-2z"/>
			<path d="m15 19h2v2h-2z"/>
			<path d="m23 19h2v2h-2z"/>
			<path d="m19 19h2v2h-2z"/>
			<path d="m11 23h2v2h-2z"/>
			<path d="m19 23h2v2h-2z"/>
			<path d="m15 23h2v2h-2z"/>
			<path d="m45 19h2v2h-2z"/>
			<path d="m49 19h2v2h-2z"/>
			<path d="m41 19h2v2h-2z"/>
			<path d="m41 23h2v2h-2z"/>
			<path d="m49 23h2v2h-2z"/>
			<path d="m45 23h2v2h-2z"/>
			<path d="m45 31h2v2h-2z"/>
			<path d="m45 27h2v2h-2z"/>
			<path d="m45 35h2v2h-2z"/>
			<path d="m49 27h2v2h-2z"/>
			<path d="m49 31h2v2h-2z"/>
		</g>
	</symbol>
	<symbol id="placeholder" viewBox="0 0 512 512">
		<title>placeholder</title>
		<path style="fill:#3d3118;" d="M256,0C156.698,0,76,80.7,76,180c0,33.6,9.302,66.301,27.001,94.501l140.797,230.414 c2.402,3.9,6.002,6.301,10.203,6.901c5.698,0.899,12.001-1.5,15.3-7.2l141.2-232.516C427.299,244.501,436,212.401,436,180 C436,80.7,355.302,0,256,0z M256,270c-50.398,0-90-40.8-90-90c0-49.501,40.499-90,90-90s90,40.499,90,90 C346,228.9,306.999,270,256,270z"/>
		<path style="fill:#4b3d1f;" d="M256,0v90c49.501,0,90,40.499,90,90c0,48.9-39.001,90-90,90v241.991 c5.119,0.119,10.383-2.335,13.3-7.375L410.5,272.1c16.799-27.599,25.5-59.699,25.5-92.1C436,80.7,355.302,0,256,0z"/>
	</symbol>
	<symbol id="call" viewBox="0 0 512.076 512.076">
		<title>call</title>
		<g
			xmlns="http://www.w3.org/2000/svg" transform="translate(-1 -1)">
			<g transform="translate(2 2)">
				<path style="" d="M499.423,430.246l-26.027,43.349c-4.39,7.359-10.476,13.561-17.749,18.091 c-4.15,2.614-8.665,4.598-13.397,5.888c-43.179,11.861-138.496,14.336-291.243-138.496S0.649,111.014,12.511,67.835 c1.29-4.732,3.274-9.247,5.888-13.397c4.53-7.274,10.732-13.359,18.091-17.749l43.349-26.027 c9.899-5.927,22.707-3.035,29.099,6.571l37.632,56.32l31.488,47.275c6.226,9.447,4.187,22.088-4.693,29.099l-10.411,8.107 l-28.416,22.016c-8.363,6.532-10.781,18.151-5.717,27.477c11.435,20.48,22.187,44.629,75.605,98.133s77.653,64.171,98.133,75.605 c9.326,5.063,20.945,2.646,27.477-5.717l22.016-28.416l8.107-10.411c7.011-8.881,19.651-10.919,29.099-4.693l48.725,32.512 l54.869,36.608C502.457,407.538,505.349,420.347,499.423,430.246z" fill="#3d3118" data-original="#558b30"/>
				<path style="" d="M482.356,447.312l-26.027,43.349c-0.256,0.341-0.427,0.683-0.683,1.024 c-4.15,2.614-8.665,4.598-13.397,5.888c-43.179,11.861-138.496,14.336-291.243-138.496S0.649,111.014,12.511,67.835 c1.29-4.732,3.274-9.247,5.888-13.397c0.341-0.256,0.683-0.427,1.024-0.683l43.349-26.027c9.899-5.927,22.707-3.035,29.099,6.571 l37.632,56.32l31.488,47.275c6.15,9.464,4.12,22.049-4.693,29.099l-28.587,22.187l-10.24,7.936 c-8.382,6.52-10.803,18.155-5.717,27.477c11.435,20.48,22.187,44.629,75.605,98.133s77.653,64.171,98.133,75.605 c9.323,5.086,20.957,2.665,27.477-5.717l7.936-10.24l22.187-28.587c7.05-8.814,19.635-10.843,29.099-4.693l48.725,32.512 l54.869,36.608C485.391,424.605,488.283,437.414,482.356,447.312z" fill="#4b3d1f" data-original="#8bc34a"/>
			</g>
			<g>
				<path d="M406.413,513.056c13.543,0.058,27.033-1.704,40.107-5.239c15.212-4.264,28.18-14.256,36.181-27.878l26.061-43.315 c8.301-13.791,4.282-31.672-9.122-40.585l-103.646-69.12c-13.153-8.701-30.785-5.838-40.508,6.579l-30.191,38.818 c-3.881,5.116-10.933,6.6-16.546,3.482l-5.743-3.166c-19.038-10.377-42.726-23.296-90.453-71.04 c-47.727-47.744-60.672-71.45-71.049-90.453l-3.149-5.743c-3.161-5.612-1.705-12.695,3.413-16.606l38.793-30.182 c12.412-9.725,15.279-27.351,6.588-40.508l-69.12-103.646C109.12,1.056,91.25-2.966,77.461,5.323L34.12,31.358 C20.502,39.364,10.511,52.33,6.242,67.539c-15.607,56.866-3.866,155.008,140.706,299.597 C261.952,482.131,347.567,513.056,406.413,513.056z M22.703,72.054c3.116-10.968,10.354-20.307,20.198-26.061l43.341-26.001 c5.983-3.6,13.739-1.855,17.604,3.959l37.547,56.371l31.514,47.266c3.774,5.707,2.534,13.356-2.85,17.579l-38.801,30.182 c-11.808,9.029-15.18,25.366-7.91,38.332l3.081,5.598c10.906,20.002,24.465,44.885,73.967,94.379s74.377,63.053,94.37,73.958 l5.606,3.089c12.966,7.269,29.303,3.898,38.332-7.91l30.182-38.801c4.224-5.381,11.87-6.62,17.579-2.85l103.637,69.12 c5.819,3.863,7.564,11.622,3.959,17.604l-26.001,43.341c-5.746,9.832-15.072,17.061-26.027,20.173 c-52.497,14.413-144.213,2.475-283.008-136.32S8.29,124.559,22.703,72.054z" fill="#ffffff" data-original="#000000" style="" class=""/>
				<path d="M291.161,86.39c80.081,0.089,144.977,64.986,145.067,145.067c0,4.713,3.821,8.533,8.533,8.533 c4.713,0,8.533-3.821,8.533-8.533c-0.099-89.503-72.631-162.035-162.133-162.133c-4.713,0-8.533,3.82-8.533,8.533 C282.628,82.569,286.448,86.39,291.161,86.39z" fill="#ffffff" data-original="#000000" style="" class=""/>
				<path d="M291.161,137.59c51.816,0.061,93.806,42.051,93.867,93.867c0,4.713,3.82,8.533,8.533,8.533s8.533-3.821,8.533-8.533 c-0.071-61.238-49.696-110.863-110.933-110.933c-4.713,0-8.533,3.821-8.533,8.533C282.628,133.769,286.448,137.59,291.161,137.59z " fill="#ffffff" data-original="#000000" style="" class=""/>
				<path d="M291.161,188.79c23.552,0.028,42.638,19.114,42.667,42.667c0,4.713,3.82,8.533,8.533,8.533s8.533-3.821,8.533-8.533 c-0.038-32.974-26.759-59.696-59.733-59.733c-4.713,0-8.533,3.821-8.533,8.533S286.448,188.79,291.161,188.79z" fill="#ffffff" data-original="#000000" style="" class=""/>
			</g>
		</g>
	</symbol>
	<symbol id="facebook" viewBox="0 0 512 512">
		<title>facebook</title>
		<path style="fill:#6E87F5;" d="M414,10H98c-48.601,0-88,39.399-88,88v316c0,48.601,39.399,88,88,88h158c0-0.128,0-104.876,0-196.5 h-59v-71.006h59v-52.008c0-33.259,15.455-84.938,84.206-84.938h74.517v69.66c0,0-49.552,0-56.742,0 c-7.639,0-17.982,3.59-17.982,19.316v47.521h75.172L407.98,305.5H340c0,90.727,0,196.372,0,196.5h74c48.601,0,88-39.399,88-88V98 C502,49.399,462.601,10,414,10z"/>
		<path d="M256,395.493c-5.523,0-10-4.477-10-10v-0.08c0-0.013,0-0.027,0-0.04s0-0.027,0-0.04c0-5.523,4.477-10,10-10 c5.523,0,10,4.477,10,10c0,0.013,0,0.027,0,0.04s0,0.026,0,0.04s0,0.026,0,0.04s0,0.026,0,0.04 C266,391.016,261.523,395.493,256,395.493z"/>
		<path d="M414,512h-74c-5.523,0-10-4.477-10-10V305.5c0-5.523,4.477-10,10-10h58.937l5.178-51.455H340c-5.523,0-10-4.477-10-10 v-47.521c0-21.638,15.073-29.316,27.981-29.316h46.742v-49.66h-64.517c-66.976,0-74.207,52.406-74.207,74.938v52.007 c0,5.523-4.477,10-10,10h-49V295.5h49c5.523,0,10,4.477,10,10V344c0,5.523-4.477,10-10,10s-10-4.477-10-10v-28.5h-49 c-5.523,0-10-4.477-10-10v-71.006c0-5.523,4.477-10,10-10h49v-42.007c0-13.38,2.37-39.076,18.243-60.834 c11.349-15.558,33.741-34.104,75.964-34.104h74.517c5.523,0,10,4.477,10,10v69.66c0,5.523-4.477,10-10,10h-56.742 c-5.818,0-7.981,2.525-7.981,9.316v37.521h65.172c2.826,0,5.521,1.196,7.417,3.292c1.896,2.096,2.816,4.896,2.533,7.709 l-7.191,71.455c-0.514,5.109-4.814,8.999-9.95,8.999H350V492h64c43.009,0,78-34.991,78-78V98c0-43.009-34.991-78-78-78H98 c-43.009,0-78,34.991-78,78v316c0,43.009,34.991,78,78,78h148v-67.5c0-5.523,4.477-10,10-10c5.523,0,10,4.477,10,10V502 c0,5.523-4.477,10-10,10H98c-54.038,0-98-43.962-98-98V98C0,43.962,43.962,0,98,0h316c54.038,0,98,43.962,98,98v316 C512,468.038,468.038,512,414,512z"/>
		<path d="M58,206c-5.523,0-10-4.477-10-10v-83.5c0-5.523,4.477-10,10-10s10,4.477,10,10V196C68,201.523,63.523,206,58,206z"/>
		<path d="M58,249.5c-5.523,0-10-4.477-10-10v-0.118c0-5.523,4.477-10,10-10s10,4.477,10,10v0.118C68,245.023,63.523,249.5,58,249.5z"/>
	</symbol>
	<symbol id="google-plus" viewBox="0 0 512 512">
		<title>google-plus</title>
		<g>
			<path style="fill:#FF5A5A;" d="M493.25,233.298h-38.548V194.75c0-4.832-3.916-8.75-8.751-8.75h-27.904 c-4.834,0-8.75,3.918-8.75,8.75v38.548h-38.548c-4.832,0-8.75,3.917-8.75,8.751v27.904c0,4.834,3.918,8.751,8.75,8.751h38.547 v38.547c0,4.833,3.917,8.75,8.751,8.75h27.904c4.834,0,8.751-3.917,8.751-8.75v-38.547h38.548c4.832,0,8.75-3.917,8.75-8.751 v-27.904C502,237.215,498.082,233.298,493.25,233.298z"/>
			<path style="fill:#FF5A5A;" d="M321.434,242.712c-0.963-7.236-7.724-13.16-15.026-13.16H185.552 c-7.301,0-13.276,5.974-13.276,13.277v28.583c0,7.302,5.974,13.277,13.276,13.277h59.675c6.875,0,11.537,4.701,9.256,10.663 c-7.47,16.739-19.573,30.949-34.651,41.066l0,0l0,0l0,0c-15.4,10.332-33.89,16.413-53.83,16.413 c-41.271,0-76.414-25.863-90.352-62.229h0.001c-4.123-10.761-6.478-22.392-6.478-34.601c0-12.339,2.396-24.095,6.606-34.947 l-0.001-0.001c14.03-36.181,49.084-61.88,90.221-61.88c20.099,0,38.719,6.176,54.174,16.679l0.458,0.302 c6.18,3.888,14.323,3.747,19.309-1.59l23.588-25.165c4.984-5.336,4.013-12.896-2.158-16.8l-0.313-0.286 C234.739,112.053,201.78,100,165.999,100c-59.747,0-111.625,33.603-137.829,82.925l0.001,0.001 C16.588,204.729,10,229.591,10,256.001c0,26.531,6.643,51.504,18.324,73.378h-0.001C54.582,378.539,106.374,412,165.999,412 c38.721,0,74.117-14.138,101.391-37.492h0.001C300.801,345.893,322,303.436,322,256C322,246.974,321.434,242.712,321.434,242.712z"/>
		</g>
		<path d="M445.951,336.001h-27.904c-10.339,0-18.751-8.411-18.751-18.75v-28.548h-28.547c-10.339,0-18.75-8.412-18.75-18.751v-27.904 c0-10.339,8.411-18.751,18.75-18.751h28.548V194.75c0-10.339,8.411-18.75,18.75-18.75h27.904c10.339,0,18.751,8.411,18.751,18.75 v28.548h28.548c10.339,0,18.75,8.412,18.75,18.751v27.904c0,10.339-8.411,18.751-18.75,18.751h-28.548v28.548 C464.702,327.59,456.291,336.001,445.951,336.001z M419.296,316.001h25.406v-37.298c0-5.522,4.477-10,10-10H492v-25.406h-37.298 c-5.523,0-10-4.477-10-10V196h-25.405v37.298c0,5.523-4.477,10-10,10h-37.298v25.406h37.297c5.523,0,10,4.478,10,10V316.001z"/>
		<path d="M166.002,362.83c-22.038,0-43.191-6.671-61.171-19.293c-17.543-12.314-30.862-29.382-38.518-49.357 c-4.738-12.369-7.14-25.215-7.14-38.18c0-13.131,2.45-26.105,7.283-38.563c7.706-19.875,21.033-36.85,38.538-49.087 c17.945-12.545,39.04-19.177,61.005-19.177c21.374,0,42.027,6.351,59.735,18.368l0.294,0.194c2.05,1.257,5.035,1.681,6.603,0.002 l23.6-25.178c0.426-0.457,0.489-0.767,0.481-0.825c-0.008-0.057-0.146-0.342-0.689-0.685c-0.495-0.313-0.961-0.669-1.395-1.064 C229,120.366,198.364,110,165.999,110C111.866,110,62.436,139.741,37,187.617c-11.122,20.938-17,44.586-17,68.384 c0,23.92,5.929,47.664,17.145,68.667c1.889,3.537,3.954,7.046,6.139,10.43c2.996,4.64,1.664,10.83-2.976,13.825 c-4.641,2.996-10.83,1.664-13.826-2.976c-2.482-3.845-4.831-7.834-6.979-11.857C6.744,310.198,0,283.196,0,256.001 c0-27.059,6.688-53.95,19.339-77.767C48.253,123.809,104.45,90,165.999,90c36.955,0,71.934,11.892,101.157,34.389 c0.119,0.091,0.236,0.186,0.35,0.282c5.02,3.474,8.298,8.715,9.043,14.516c0.784,6.1-1.299,12.31-5.714,17.037l-23.601,25.179 c-7.939,8.5-21.373,9.859-31.93,3.215c-0.062-0.039-0.123-0.078-0.183-0.117l-0.458-0.303c-0.038-0.025-0.076-0.05-0.113-0.075 c-14.392-9.781-31.182-14.95-48.553-14.95c-36.071,0-67.825,21.783-80.897,55.495c-3.934,10.145-5.929,20.687-5.929,31.333 c0,10.511,1.957,20.949,5.817,31.024c12.792,33.379,45.349,55.807,81.012,55.807c17.22,0,33.907-5.089,48.259-14.717 c12.626-8.472,22.756-19.974,29.477-33.425h-58.187c-12.834,0-23.275-10.441-23.275-23.276v-28.583 c0-12.835,10.441-23.277,23.275-23.277h23.256c5.523,0,10,4.477,10,10s-4.477,10-10,10h-23.256c-1.775,0-3.275,1.501-3.275,3.277 v28.583c0,1.776,1.5,3.276,3.275,3.276h59.675c7.056,0,13.372,3.059,16.896,8.181c3.203,4.655,3.822,10.508,1.699,16.058 c-0.064,0.169-0.134,0.336-0.208,0.501c-8.192,18.355-21.405,34.018-38.211,45.294C207.744,356.569,187.204,362.83,166.002,362.83z"/>
		<path d="M244.5,239.55c-2.63,0-5.21-1.07-7.07-2.93c-1.86-1.86-2.93-4.44-2.93-7.07s1.07-5.21,2.93-7.07 c1.86-1.86,4.44-2.93,7.07-2.93s5.21,1.07,7.07,2.93c1.86,1.86,2.93,4.44,2.93,7.07s-1.07,5.21-2.93,7.07 C249.71,238.48,247.13,239.55,244.5,239.55z"/>
		<path d="M165.999,422c-26.354,0-51.555-5.999-74.905-17.831c-4.926-2.496-6.896-8.514-4.4-13.439c2.497-4.927,8.514-6.896,13.44-4.4 c20.522,10.398,42.682,15.67,65.865,15.67c34.765,0,68.463-12.461,94.887-35.088C293.37,339.093,312,298.666,312,256 c0-8.057-0.479-11.971-0.483-12.009c-0.295-2.22-2.828-4.439-5.108-4.439H286.5c-5.523,0-10-4.477-10-10s4.477-10,10-10h19.909 c12.354,0,23.308,9.593,24.938,21.84C331.415,241.9,332,246.585,332,256c0,48.515-21.178,94.478-58.104,126.103 C243.849,407.831,205.531,422,165.999,422z"/>
		<path d="M60.836,381.208c-2.41,0-4.827-0.866-6.746-2.621c-0.441-0.403-0.88-0.81-1.318-1.218 c-4.039-3.767-4.259-10.095-0.492-14.133c3.768-4.039,10.095-4.259,14.134-0.492c0.39,0.363,0.781,0.725,1.174,1.085 c4.075,3.728,4.357,10.053,0.63,14.128C66.246,380.114,63.545,381.208,60.836,381.208z"/>
	</symbol>
	<symbol id="instagram" viewBox="0 0 512 512">
		<title>instagram</title>
		<path
			xmlns="http://www.w3.org/2000/svg" style="" d="M362,502H150c-77.32,0-140-62.68-140-140V150C10,72.68,72.68,10,150,10h212 c77.32,0,140,62.68,140,140v212C502,439.32,439.32,502,362,502z" fill="#e68cbe" data-original="#e68cbe"/>
			<path
				xmlns="http://www.w3.org/2000/svg" style="" d="M362,458H150c-53.019,0-96-42.981-96-96V150c0-53.019,42.981-96,96-96h212c53.019,0,96,42.981,96,96 v212C458,415.019,415.019,458,362,458z" fill="#1a1a1a" data-original="#ffffff" class=""/>
				<circle
					xmlns="http://www.w3.org/2000/svg" style="" cx="256" cy="256" r="128" fill="#ff5a5a" data-original="#ff5a5a"/>
					<circle
						xmlns="http://www.w3.org/2000/svg" style="" cx="256" cy="256" r="80" fill="#1a1a1a" data-original="#ffffff" class=""/>
						<circle
							xmlns="http://www.w3.org/2000/svg" style="" cx="387.25" cy="124.75" r="28" fill="#ff5a5a" data-original="#ff5a5a"/>
							<path
								xmlns="http://www.w3.org/2000/svg" d="M362,512H150C67.29,512,0,444.71,0,362V150C0,67.29,67.29,0,150,0h212c82.71,0,150,67.29,150,150v212 C512,444.71,444.71,512,362,512z M150,20C78.318,20,20,78.318,20,150v212c0,71.682,58.318,130,130,130h212 c71.682,0,130-58.318,130-130V150c0-71.682-58.318-130-130-130H150z" fill="#000000" data-original="#000000" style=""/>
								<path
									xmlns="http://www.w3.org/2000/svg" d="M362,468h-60.333c-5.523,0-10-4.477-10-10s4.477-10,10-10H362c47.42,0,86-38.58,86-86V150c0-47.42-38.58-86-86-86H150 c-47.42,0-86,38.58-86,86v212c0,47.42,38.58,86,86,86h61c5.523,0,10,4.477,10,10s-4.477,10-10,10h-61c-58.449,0-106-47.551-106-106 V150C44,91.551,91.551,44,150,44h212c58.449,0,106,47.551,106,106v212C468,420.449,420.449,468,362,468z" fill="#000000" data-original="#000000" style=""/>
									<path
										xmlns="http://www.w3.org/2000/svg" d="M256,468c-2.63,0-5.21-1.07-7.07-2.93S246,460.63,246,458s1.07-5.21,2.93-7.07c1.86-1.86,4.44-2.93,7.07-2.93 s5.21,1.07,7.07,2.93c1.86,1.86,2.93,4.44,2.93,7.07s-1.07,5.21-2.93,7.07S258.63,468,256,468z" fill="#000000" data-original="#000000" style=""/>
										<path
											xmlns="http://www.w3.org/2000/svg" d="M168.117,172.939c-2.657,0-5.308-1.052-7.275-3.137c-3.791-4.017-3.607-10.346,0.41-14.136l0.443-0.417 c4.031-3.775,10.358-3.569,14.135,0.461c3.776,4.03,3.569,10.359-0.461,14.135l-0.391,0.367 C173.046,172.035,170.579,172.939,168.117,172.939z" fill="#000000" data-original="#000000" style=""/>
											<path
												xmlns="http://www.w3.org/2000/svg" d="M256,394c-76.093,0-138-61.907-138-138c0-23.875,6.197-47.408,17.921-68.054c2.728-4.803,8.831-6.484,13.634-3.758 c4.803,2.728,6.485,8.832,3.758,13.634C143.295,215.463,138,235.581,138,256c0,65.065,52.935,118,118,118s118-52.935,118-118 s-52.935-118-118-118c-19.055,0-37.238,4.398-54.043,13.073c-4.907,2.532-10.939,0.608-13.473-4.299 c-2.533-4.908-0.608-10.94,4.299-13.473C212.176,123.291,234.036,118,256,118c76.093,0,138,61.907,138,138S332.093,394,256,394z" fill="#000000" data-original="#000000" style=""/>
												<path
													xmlns="http://www.w3.org/2000/svg" d="M256,346c-49.626,0-90-40.374-90-90s40.374-90,90-90s90,40.374,90,90S305.626,346,256,346z M256,186 c-38.598,0-70,31.402-70,70s31.402,70,70,70s70-31.402,70-70S294.598,186,256,186z" fill="#000000" data-original="#000000" style=""/>
													<path
														xmlns="http://www.w3.org/2000/svg" d="M387.25,162.75c-20.953,0-38-17.047-38-38s17.047-38,38-38s38,17.047,38,38S408.203,162.75,387.25,162.75z M387.25,106.75 c-9.925,0-18,8.075-18,18s8.075,18,18,18s18-8.075,18-18S397.175,106.75,387.25,106.75z" fill="#000000" data-original="#000000" style=""/>
													</symbol>
													<symbol id="email" viewBox="0 0 512.002 512.002">
														<title>email</title>
														<g>
															<path style="fill:#4b3d1f;" d="M495.041,91.628c4.052,3.952,6.323,9.38,6.293,15.04v298.667c0.03,5.66-2.241,11.088-6.293,15.04 l-47.04-47.04L310.188,235.521l180.48-139.52L495.041,91.628z"/>
															<path style="fill:#4b3d1f;" d="M64.001,373.334l-46.933,46.933l-0.107,0.107c-4.052-3.952-6.323-9.38-6.293-15.04V106.668 c-0.027-4.257,1.238-8.423,3.627-11.947l7.04,1.28l180.48,139.52L64.001,373.334z"/>
														</g>
														<g>
															<path style="fill:#3d3118;" d="M17.068,420.268l46.933-46.933l137.813-137.813l54.187,41.813l54.187-41.813l137.813,137.813 l47.04,47.04c-3.952,4.052-9.38,6.323-15.04,6.293h-448c-5.66,0.03-11.088-2.241-15.04-6.293L17.068,420.268z"/>
															<path style="fill:#3d3118;" d="M480.001,85.334c5.66-0.03,11.088,2.242,15.04,6.293l-4.373,4.373l-180.48,139.52l-54.187,41.813 l-54.187-41.813L21.334,96.001l-7.04-1.28c3.98-5.872,10.613-9.388,17.707-9.387H480.001z"/>
														</g>
														<path style="fill:#fff;" d="M502.678,84.182c-5.951-6.123-14.139-9.558-22.677-9.515h-448 c-10.623-0.009-20.558,5.254-26.517,14.048c-3.602,5.291-5.514,11.551-5.483,17.952v298.667c-0.069,8.449,3.296,16.564,9.323,22.485 c5.951,6.123,14.139,9.558,22.677,9.515h448c17.632-0.099,31.901-14.368,32-32V106.668C512.07,98.219,508.705,90.104,502.678,84.182 z M256.001,263.862L38.774,96.001h434.453L256.001,263.862z M487.404,412.929c-1.946,1.99-4.62,3.1-7.403,3.072h-448 c-2.877,0.007-5.629-1.174-7.605-3.264c-1.978-1.953-3.082-4.623-3.061-7.403V109.473l164.405,127.04L56.46,365.793l15.083,15.083 l131.2-131.2l46.731,36.117c3.84,2.964,9.195,2.964,13.035,0l46.731-36.117l131.2,131.2l15.083-15.083l-129.28-129.28 l164.427-127.04v295.861C490.672,408.207,489.491,410.955,487.404,412.929L487.404,412.929z"/>
													</symbol>
													<symbol id="blueprint" viewBox="0 0 496 496">
														<title>blueprint</title>
														<path style="fill:#FFA64D;" d="M304,336v-80h-38.152c-2.504-8.16-5.768-16.04-9.736-23.544l26.96-26.96l-56.568-56.568l-26.96,26.96 c-7.504-3.968-15.392-7.224-23.544-9.736V128h-37.496L136,208.192V216c44.184,0,80,35.816,80,80s-35.816,80-80,80v48 c0,11.024-2.792,21.4-7.704,30.456L128,464h48v-38.152c8.16-2.504,16.04-5.768,23.544-9.736l26.96,26.96l56.568-56.568l-26.96-26.96 c3.968-7.504,7.224-15.392,9.736-23.544H304z"/>
														<g>
															<path style="fill:#ffffff;" d="M464,96v-9.536l-29.6-74.008C431.368,4.888,424.144,0,416,0s-15.368,4.888-18.4,12.456L368,86.464 V96H143.528c-4-35.944-34.536-64-71.528-64C32.304,32,0,64.296,0,104v320c0,39.704,32.304,72,72,72h424V96H464z M408,96v168h-24V96 H408z M384,280h64v32c0,4.416-3.592,8-8,8h-48c-4.408,0-8-3.584-8-8V280z M448,264h-24V96h24V264z M412.456,18.4 c1.176-2.904,5.928-2.896,7.088,0l24.64,61.6h-56.368L412.456,18.4z M156,330.656c-3.72,2.152-7.792,3.592-12,4.456v-78.296 c18.232,3.72,32,19.872,32,39.192c0,9.432-3.336,18.576-9.408,25.768l12.224,10.328C187.32,322.024,192,309.2,192,296 c0-28.152-20.904-51.456-48-55.36v-16.168C179.944,228.464,208,259,208,296s-28.056,67.536-64,71.528v-16.144 c7.04-1.016,13.848-3.32,20.008-6.888L156,330.656z M16,104c0-30.872,25.12-56,56-56s56,25.128,56,56v274.848 C114.792,362.496,94.608,352,72,352s-42.792,10.496-56,26.848V104z M16,424c0-30.872,25.12-56,56-56s56,25.128,56,56 s-25.12,56-56,56S16,454.872,16,424z M480,480H117.152C133.504,466.792,144,446.608,144,424v-40.408 c44.784-4.056,80-41.768,80-87.592s-35.216-83.536-80-87.592V112h224v200c0,13.232,10.768,24,24,24h48c13.232,0,24-10.768,24-24 V112h16V480z"/>
															<path style="fill:#ffffff;" d="M304,464h160V352H304V464z M320,368h128v80H320V368z"/>
															<rect x="368" y="384" style="fill:#ffffff;" width="64" height="16"/>
															<rect x="336" y="384" style="fill:#ffffff;" width="16" height="16"/>
															<rect x="336" y="416" style="fill:#ffffff;" width="64" height="16"/>
															<rect x="416" y="416" style="fill:#ffffff;" width="16" height="16"/>
															<path style="fill:#ffffff;" d="M72,384c-22.056,0-40,17.944-40,40s17.944,40,40,40v-16c-13.232,0-24-10.768-24-24s10.768-24,24-24 s24,10.768,24,24h16C112,401.944,94.056,384,72,384z"/>
														</g>
													</symbol>
													<symbol id="whatsapp" viewBox="0 0 508 508">
														<title>whatsapp</title>
														<path
															xmlns="http://www.w3.org/2000/svg" style="" d="M504,378.4c0,68.8-56.4,125.6-125.2,125.6H129.2C60.4,504,4,447.2,4,378.4V128.8C4,60,60.4,4,129.2,4 h249.6C447.6,4,504,59.6,504,128.8V378.4z" fill="#00c451" data-original="#00c451" class=""/>
															<path
																xmlns="http://www.w3.org/2000/svg" style="" d="M410,253.6c0,84-68.4,152-153.2,152c-26.8,0-52-6.8-74-18.8L98,413.6l27.6-81.6 c-14-22.8-22-49.6-22-78.4c0-84,68.4-152,153.2-152C341.6,101.6,410,169.6,410,253.6 M256.8,125.6c-71.2,0-128.8,57.2-128.8,127.6 c0,28,9.2,54,24.4,74.8l-16,47.6L186,360c20.4,13.2,44.8,21.2,70.8,21.2c71.2,0,128.8-57.2,128.8-127.6 C385.6,183.2,328,125.6,256.8,125.6 M334,288.4c-0.8-1.6-3.6-2.4-7.2-4.4s-22.4-10.8-25.6-12c-3.2-1.2-6-2-8.4,2 c-2.4,3.6-9.6,12-12,14.8c-2,2.4-4.4,2.8-8,0.8s-16-5.6-30.4-18.4c-11.2-10-18.8-22-20.8-25.6s-0.4-5.6,1.6-7.6 c1.6-1.6,3.6-4.4,5.6-6.4s2.4-3.6,3.6-6.4c1.2-2.4,0.8-4.8-0.4-6.4c-0.8-2-8.4-20-11.6-27.6c-3.2-7.6-6.4-6-8.4-6s-4.8-0.4-7.2-0.4 s-6.4,0.8-10,4.8c-3.6,3.6-13.2,12.8-13.2,31.2s13.6,36,15.2,38.4c2,2.4,26,41.2,64,56.4c38,14.8,38,10,45.2,9.2 c6.8-0.8,22-8.8,25.2-17.6C335.2,297.6,335.2,290,334,288.4" fill="#1a1a1a" data-original="#ffffff" class=""/>
																<path
																	xmlns="http://www.w3.org/2000/svg" d="M378.8,508H129.2C58,508,0,450.4,0,379.2V129.6C0,58,58,0,129.2,0h249.6C450,0,508,58,508,129.6v249.6 C508,450.4,450,508,378.8,508z M129.2,8C62.4,8,8,62.4,8,129.6v249.6C8,445.6,62.4,500,129.2,500h249.6c66.8,0,121.2-54,121.2-120.8 V129.6C500,62.4,445.6,8,378.8,8C378.8,8,129.2,8,129.2,8z" fill="#1a1a1a" data-original="#000000" style="" class=""/>
																	<path
																		xmlns="http://www.w3.org/2000/svg" d="M370,484H138c-62.8,0-114-51.2-114-113.6v-232C24,76.4,76,24,138,24h231.2c2.4,0,4,1.6,4,4s-1.6,4-4,4H138 C80.4,32,32,80.8,32,138.4v232C32,427.6,80.8,476,138,476h232c57.6,0,106-48.4,106-105.6V258c0-2.4,1.6-4,4-4s4,1.6,4,4v112.4 C484,433.2,432.8,484,370,484z" fill="#1a1a1a" data-original="#000000" style="" class=""/>
																		<path
																			xmlns="http://www.w3.org/2000/svg" d="M446.8,65.6c-1.2,0-2-0.4-2.8-1.2C424.4,44.8,393.6,32,366,32c-2.4,0-4-1.6-4-4s1.6-4,4-4c30,0,62,13.2,83.6,34.8 c1.6,1.6,1.6,4,0,5.6C449.2,65.2,448,65.6,446.8,65.6z" fill="#1a1a1a" data-original="#000000" style="" class=""/>
																			<path
																				xmlns="http://www.w3.org/2000/svg" d="M480,234c-2.4,0-4-1.6-4-4v-59.2c0-2.4,1.6-4,4-4s4,1.6,4,4V230C484,232.4,482.4,234,480,234z" fill="#1a1a1a" data-original="#000000" style="" class=""/>
																				<path
																					xmlns="http://www.w3.org/2000/svg" d="M256.4,386.4c-25.6,0-50-7.2-71.6-20.8l-47.6,15.2c-1.6,0.4-3.2,0-4-1.2s-1.6-2.8-0.8-4L148,330c-15.6-22.4-24-48.4-24-75.6 c0-72.8,59.6-131.6,132.8-131.6S389.6,182,389.6,254.4C389.2,327.2,329.6,386.4,256.4,386.4z M185.6,357.2c0.8,0,1.6,0.4,2,0.8 c20.4,13.6,44,20.4,68.8,20.4c68.8,0,124.8-55.6,124.8-123.6c0-68.4-56-123.6-124.8-123.6s-124.8,55.6-124.8,123.6 c0,26.4,8.4,51.2,23.6,72.4c0.8,1.2,0.8,2.4,0.4,3.6l-13.6,40l42-13.2C184.8,357.2,185.2,357.2,185.6,357.2z M298,330.4 c-5.6,0-15.6-2-38-10.8c-23.6-9.6-46.8-29.6-65.2-56.8c-0.4-0.4-0.8-0.8-0.8-1.2c-4.8-6.4-16-23.2-16-40.8 c0-18.8,9.6-28.8,13.6-33.2l0.8-0.8c4.8-5.2,10.8-6,12.8-6c1.2,0,2.8,0,4,0s2,0,3.2,0h0.4c4-0.4,8,0.4,11.6,8.8 c1.2,2.4,2.8,6.4,4.4,10.4c2.8,6.8,6.4,15.6,7.2,16.8s2.8,5.2,0.4,10L236,228c-0.8,2-2,3.6-3.6,6c-0.8,0.8-1.2,1.6-2,2.4 c-1.2,1.6-2.8,3.2-4,4.4c-1.6,1.6-1.6,1.6-1.2,2.8c1.2,2,0.4,4.4-1.6,5.6c-2,1.2-4.4,0.4-5.6-1.6c-4-6.4,0.4-10.8,2.4-12.4 c0.8-0.8,2-2.4,3.2-3.6c0.8-0.8,1.6-1.6,2-2.4c1.2-1.6,1.6-2.4,2.8-4.4l0.4-1.2c0.4-0.8,0.4-1.6-0.4-2.8c-0.8-1.2-3.2-7.2-7.2-17.2 c-1.6-4-3.2-8-4.4-10.4c-1.6-4-2.4-4-3.6-3.6c-1.6,0-3.2,0-4.8,0c-1.2,0-2.4,0-3.6,0c-1.2,0-4.4,0.4-7.2,3.2l-0.8,0.8 c-3.6,4-11.2,12-11.2,27.6s11.2,31.6,14.4,36c0,0.4,0.4,0.8,0.8,1.2c17.6,26,39.6,44.8,61.6,53.6c30.4,12,35.6,10.8,39.6,9.6 c1.2-0.4,2.4-0.4,3.6-0.8c6-0.4,19.6-8.4,22-15.2c2.4-6.8,2.8-12.8,2.4-14.4c-0.4-0.4-2-1.2-3.6-1.6l-2-0.8 c-4.8-2.4-22.4-10.8-25.2-12c-2.8-1.2-2.8-1.2-3.6,0.4c-3.2,4.8-12,14.8-12,15.2c-5.2,5.6-10.8,2.8-12.8,2c-0.4-0.4-1.2-0.4-2.4-0.8 c-5.2-2.4-16.4-7.2-28.8-18c-1.6-1.6-2-4-0.4-5.6s4-2,5.6-0.4c11.6,10.4,21.2,14.4,26.8,16.8c1.2,0.4,2,0.8,2.8,1.2 c2.4,1.2,2.4,0.8,3.2,0c2.8-3.2,9.2-10.8,11.6-14c4.4-6.4,10-4.4,13.2-3.6c4,1.6,23.6,10.8,26,12.4l2,0.8c3.2,1.6,5.6,2.8,6.8,4.8 c2,3.2,1.2,12.8-2,21.2c-4,10.8-20.8,19.6-28.8,20.4c-0.8,0-1.6,0.4-2.4,0.4C302.4,329.6,300.8,330.4,298,330.4z" fill="#1a1a1a" data-original="#000000" style="" class=""/>
																					<path
																						xmlns="http://www.w3.org/2000/svg" d="M97.6,418.4c-1.2,0-2-0.4-2.8-1.2c-1.2-1.2-1.6-2.8-0.8-4l27.2-79.6c-14-24-21.6-51.2-21.6-78.8c0-86,70.4-156,157.2-156 s157.2,70,157.2,156s-70.4,156-157.2,156c-26,0-51.6-6.4-74.4-18.4l-83.2,26.4C98.4,418.4,98,418.4,97.6,418.4z M256.4,106.4 c-82.4,0-149.2,66.4-149.2,148c0,26.8,7.2,53.2,21.2,76.4c0.8,1.2,0.8,2.4,0.4,3.2l-25.2,74l77.2-24.4c1.2-0.4,2-0.4,3.2,0.4 c22,12,46.8,18.4,72,18.4c82.4,0,149.2-66.4,149.2-148C405.6,172.8,338.8,106.4,256.4,106.4z" fill="#1a1a1a" data-original="#000000" style="" class=""/>
																					</symbol>
																					<symbol id="blueprint-1" viewBox="0 0 497.216 497.216">
																						<title>blueprint-1</title>
																						<path style="fill:#FFA64D;" d="M312.608,321.216v-48h-27.32c-1.856-6.576-4.496-12.888-7.848-18.888l19.336-19.336l-33.936-33.936 l-19.336,19.336c-6-3.36-12.312-5.992-18.888-7.848v-27.328h-48v27.32c-6.576,1.856-12.888,4.496-18.888,7.848l-19.336-19.336 l-33.936,33.936l19.336,19.336c-3.36,6-5.992,12.312-7.848,18.888H88.608v48h27.32c1.856,6.576,4.496,12.888,7.848,18.888 l-19.336,19.336l33.936,33.936l19.336-19.336c6,3.36,12.312,5.992,18.888,7.848v27.336h48v-27.32 c6.576-1.856,12.888-4.496,18.888-7.848l19.336,19.336l33.936-33.936l-19.336-19.336c3.36-6,5.992-12.312,7.848-18.888h27.336 V321.216z M200.608,329.216c-17.672,0-32-14.328-32-32s14.328-32,32-32s32,14.328,32,32S218.28,329.216,200.608,329.216z"/>
																						<g>
																							<path style="fill:#ffffff;" d="M409.736,1.296L400.608,0v90.24l-33.616,4.608L351.384,1.216h-29.64L306.056,103.2l-17.448,2.392 v6.976c0,0.216,0.048,0.432,0.056,0.648H64.608v-48h-32c-17.648,0-32,14.352-32,32v352c0,17.648,14.352,32,32,32h320.888 c10.104,9.88,23.904,16,39.112,16c30.872,0,56-25.128,56-56V213.512c0-20.72,7.744-40.176,21.24-53.376 c17.256-16.864,26.76-39.496,26.76-63.736C496.608,56.56,469.424,9.8,409.736,1.296z M335.472,17.216h2.36l13.296,79.808 l-28.544,3.912L335.472,17.216z M16.608,449.216c0-8.824,7.176-16,16-16h32v-32.008h-16v16.008h-16c-5.856,0-11.272,1.696-16,4.448 V97.216c0-8.824,7.176-16,16-16h16v304h16v-256H291.8c4.792,13.368,14.84,26.624,28.704,36.952 c10.08,7.52,16.104,19.48,16.104,32.008v243.04c0,8.592,2.008,16.712,5.48,24H32.608C23.784,465.216,16.608,458.04,16.608,449.216z M458.664,148.704c-16.552,16.184-26.056,39.808-26.056,64.808v227.704c0,22.056-17.944,40-40,40s-40-17.944-40-40v-243.04 c0-17.56-8.432-34.32-22.544-44.832c-12.864-9.584-21.944-22.28-24.632-33.904l111.176-15.248V18.848 c43.896,10.304,64,46.48,64,77.552C480.608,116.296,472.808,134.864,458.664,148.704z"/>
																							<path style="fill:#ffffff;" d="M392.608,233.216c-13.232,0-24,10.768-24,24v80h16v-80c0-4.416,3.584-8,8-8s8,3.584,8,8v120 c0,4.416-3.584,8-8,8s-8-3.584-8-8v-24h-16v24c0,13.232,10.768,24,24,24s24-10.768,24-24v-120 C416.608,243.984,405.84,233.216,392.608,233.216z"/>
																							<path style="fill:#ffffff;" d="M392.608,417.216c-13.232,0-24,10.768-24,24s10.768,24,24,24s24-10.768,24-24 S405.84,417.216,392.608,417.216z M392.608,449.216c-4.416,0-8-3.584-8-8s3.584-8,8-8s8,3.584,8,8S397.024,449.216,392.608,449.216 z"/>
																							<path style="fill:#ffffff;" d="M360.608,185.216h64v-48h-64V185.216z M376.608,153.216h32v16h-32V153.216z"/>
																							<path style="fill:#ffffff;" d="M200.608,257.216c-22.056,0-40,17.944-40,40s17.944,40,40,40s40-17.944,40-40 S222.664,257.216,200.608,257.216z M200.608,321.216c-13.232,0-24-10.768-24-24s10.768-24,24-24s24,10.768,24,24 S213.84,321.216,200.608,321.216z"/>
																							<rect x="192.608" y="153.216" style="fill:#ffffff;" width="16" height="16"/>
																							<rect x="160.608" y="153.216" style="fill:#ffffff;" width="16" height="16"/>
																							<rect x="128.608" y="153.216" style="fill:#ffffff;" width="16" height="16"/>
																							<rect x="96.608" y="153.216" style="fill:#ffffff;" width="16" height="16"/>
																							<rect x="288.608" y="425.216" style="fill:#ffffff;" width="16" height="16"/>
																							<rect x="256.608" y="425.216" style="fill:#ffffff;" width="16" height="16"/>
																							<rect x="224.608" y="425.216" style="fill:#ffffff;" width="16" height="16"/>
																							<rect x="192.608" y="425.216" style="fill:#ffffff;" width="16" height="16"/>
																						</g>
																					</symbol>
																					<symbol id="blueprint-2" viewBox="0 0 496 496">
																						<title>blueprint-2</title>
																						<path style="fill:#FFA64D;" d="M208,448h-58.936l4.904-11.2c4-9.16,6.032-18.848,6.032-28.8v-56h8c35.288,0,64-28.712,64-64 s-28.712-64-64-64h-8v-96h48v38.504c6.096,2,11.992,4.432,17.64,7.28l27.208-27.208l56.568,56.568l-27.208,27.208 c2.848,5.648,5.28,11.544,7.28,17.64H328v80h-38.504c-2,6.096-4.432,11.992-7.28,17.64l27.208,27.208l-56.568,56.568L225.648,402.2 c-5.648,2.848-11.544,5.28-17.64,7.28V448H208z"/>
																						<g>
																							<path style="fill:#ffffff;" d="M135.56,437.568c5.52-8.856,8.44-19.08,8.44-29.568c0-30.88-25.12-56-56-56s-56,25.12-56,56 s25.12,56,56,56c13.44,0,26.44-4.832,36.6-13.616l-10.464-12.112C106.888,444.544,97.6,448,88,448c-22.056,0-40-17.944-40-40 s17.944-40,40-40s40,17.944,40,40c0,7.496-2.08,14.792-6.016,21.112L135.56,437.568z"/>
																							<path style="fill:#ffffff;" d="M64,408c0,13.232,10.768,24,24,24s24-10.768,24-24s-10.768-24-24-24S64,394.768,64,408z M96,408 c0,4.408-3.592,8-8,8s-8-3.592-8-8s3.592-8,8-8S96,403.592,96,408z"/>
																							<path style="fill:#ffffff;" d="M175.592,80C171.536,35.216,133.824,0,88,0C39.48,0,0,39.48,0,88v320c0,48.52,39.48,88,88,88h408V80 H175.592z M16,88c0-39.696,32.304-72,72-72s72,32.304,72,72v269.56C144.064,334.888,117.76,320,88,320s-56.064,14.888-72,37.56V88z M16,408c0-39.696,32.304-72,72-72s72,32.304,72,72s-32.304,72-72,72S16,447.696,16,408z M480,480H138.44 c22.672-15.936,37.56-42.24,37.56-72V96h304V480z"/>
																							<path style="fill:#ffffff;" d="M464,464v-96H336v96H464z M352,416h40v32h-40V416z M408,448v-32h40v32H408z M448,384v16h-96v-16H448 z"/>
																							<rect x="432" y="248" style="fill:#ffffff;" width="16" height="16"/>
																							<rect x="432" y="152" style="fill:#ffffff;" width="16" height="80"/>
																							<rect x="352" y="152" style="fill:#ffffff;" width="16" height="112"/>
																							<rect x="392" y="152" style="fill:#ffffff;" width="16" height="112"/>
																							<rect x="32" y="288" style="fill:#ffffff;" width="16" height="16"/>
																							<rect x="32" y="96" style="fill:#ffffff;" width="16" height="176"/>
																						</g>
																						<g>
																							<path style="fill:#FFA64D;" d="M440,160c-13.232,0-24-10.768-24-24s10.768-24,24-24s24,10.768,24,24S453.232,160,440,160z"/>
																							<path style="fill:#FFA64D;" d="M360,160c-13.232,0-24-10.768-24-24s10.768-24,24-24s24,10.768,24,24S373.232,160,360,160z"/>
																							<path style="fill:#FFA64D;" d="M400,304c-13.232,0-24-10.768-24-24s10.768-24,24-24s24,10.768,24,24S413.232,304,400,304z"/>
																						</g>
																					</symbol>
																					<symbol id="blueprint-3" viewBox="0 0 500.968 500.968">
																						<title>blueprint-3</title>
																						<rect x="276.968" y="410.484" style="fill:#FFA64D;" width="88" height="48"/>
																						<g>
																							<path style="fill:#ffffff;" d="M444.968,98.484h-56v16h56c22.056,0,40,17.944,40,40v248.888 c-10.176-10.408-24.336-16.888-40-16.888h-72v-16h-16v-48h-72v48h-16v16h-16V272.62L125.44,386.484H60.968 c-22.056,0-40-17.944-40-40s17.944-40,40-40h56v-192h96v-16h-96v-96h-56c-30.872,0-56,25.12-56,56v288c0,30.88,25.128,56,56,56 h46.552L0,498.484h252.968v-96h16v96h104v-96h16v96h56c30.872,0,56-25.12,56-56v-288C500.968,123.604,475.84,98.484,444.968,98.484 z M20.968,58.484c0-22.056,17.944-40,40-40h40v272h-40c-15.656,0-29.832,6.456-40,16.84V58.484z M236.968,482.484H41.936 l195.032-174.136V482.484z M300.968,338.484h40v32h-40V338.484z M356.968,386.484v16h-72v-16H356.968z M284.968,418.484h72v32h-72 V418.484z M284.968,482.484v-16h72v16H284.968z M444.968,482.484h-40v-80h40c22.056,0,40,17.944,40,40 S467.024,482.484,444.968,482.484z"/>
																							<path style="fill:#ffffff;" d="M212.968,458.484v-89.816l-101.04,89.816H212.968z M196.968,442.484h-42.96l42.96-38.184V442.484z"/>
																							<path style="fill:#ffffff;" d="M300.968,210.484c26.472,0,48-21.528,48-48s-21.528-48-48-48s-48,21.528-48,48 S274.496,210.484,300.968,210.484z M300.968,130.484c17.648,0,32,14.352,32,32s-14.352,32-32,32s-32-14.352-32-32 S283.32,130.484,300.968,130.484z"/>
																						</g>
																						<path style="fill:#FFA64D;" d="M436.968,186.484v-48h-26.64c-2.872-13.128-8.064-25.36-15.088-36.328l18.872-18.872L380.168,49.34 l-18.872,18.872c-10.968-7.024-23.2-12.216-36.328-15.088v-26.64h-48v26.64c-13.128,2.872-25.36,8.064-36.328,15.088L221.768,49.34 l-33.936,33.944l18.872,18.872c-7.032,10.96-12.224,23.2-15.088,36.328h-26.648v48h26.64c2.872,13.128,8.064,25.36,15.088,36.328 l-18.872,18.872l33.944,33.944l18.872-18.872c10.96,7.032,23.2,12.224,36.328,15.088v26.64h48v-26.64 c13.128-2.872,25.36-8.064,36.328-15.088l18.872,18.872l33.944-33.944l-18.872-18.872c7.032-10.96,12.224-23.2,15.088-36.328 L436.968,186.484L436.968,186.484z M300.968,226.484c-35.344,0-64-28.656-64-64s28.656-64,64-64s64,28.656,64,64 S336.312,226.484,300.968,226.484z"/>
																					</symbol>
																					<symbol id="blueprint-4" viewBox="0 0 496 496">
																						<title>blueprint-4</title>
																						<g>
																							<rect x="224" y="248" style="fill:#FFA64D;" width="80" height="96"/>
																							<path style="fill:#FFA64D;" d="M328,160H200V96h128V160z"/>
																							<polygon style="fill:#FFA64D;" points="48,0 32,24 32,176 64,176 64,24 "/>
																						</g>
																						<g>
																							<path style="fill:#ffffff;" d="M448,0H160c-26.472,0-48,21.528-48,48v320H0v80c0,26.472,21.528,48,48,48h320 c26.472,0,48-21.528,48-48V160h80V48C496,21.528,474.472,0,448,0z M48,480c-17.648,0-32-14.352-32-32v-64h304v64 c0,12.28,4.64,23.504,12.256,32H48z M400,48v400c0,17.648-14.352,32-32,32s-32-14.352-32-32v-80H128V48c0-17.648,14.352-32,32-32 h252.32C404.688,24.504,400,35.696,400,48z M480,144h-64V48c0-17.648,14.352-32,32-32s32,14.352,32,32V144z"/>
																							<path style="fill:#ffffff;" d="M360,64h-32V32H200v32h-32v272h-16v16h224v-16h-16V64z M184,80h96V64h-64V48h96v16h-16v16h48v256 h-32v-80h16v-16H200v16h16v80h-32V80z M256,256v80h-24v-80H256z M272,256h24v80h-24V256z"/>
																							<rect x="200" y="176" style="fill:#ffffff;" width="128" height="16"/>
																							<rect x="200" y="208" style="fill:#ffffff;" width="128" height="16"/>
																							<path style="fill:#ffffff;" d="M16,320c0,17.648,14.352,32,32,32s32-14.352,32-32V192h16v-16H0v16h16V320z M48,336 c-8.824,0-16-7.176-16-16v-96h32v96C64,328.824,56.824,336,48,336z M64,208H32v-16h32V208z"/>
																						</g>
																					</symbol>
																					<symbol id="scroll" viewBox="0 0 512 512">
																						<title>scroll</title>
																						<g>
																							<g>
																								<path d="M95.992,0c-5.888,0-10.667,4.779-10.667,10.667v170.667c0,5.888,4.779,10.667,10.667,10.667s10.667-4.779,10.667-10.667 V10.667C106.659,4.779,101.88,0,95.992,0z"/>
																							</g>
																						</g>
																						<g>
																							<g>
																								<path d="M146.211,45.803L103.544,3.136c-4.16-4.16-10.923-4.16-15.083,0L45.795,45.803c-4.16,4.16-4.16,10.923,0,15.083 c4.16,4.16,10.923,4.16,15.083,0l35.115-35.136l35.115,35.136c2.091,2.069,4.821,3.115,7.552,3.115s5.461-1.045,7.552-3.115 C150.371,56.725,150.371,49.963,146.211,45.803z"/>
																							</g>
																						</g>
																						<g>
																							<g>
																								<path d="M426.659,234.667c-8.768,0-16.939,2.667-23.723,7.211c-5.845-16.597-21.696-28.544-40.277-28.544 c-7.765,0-15.061,2.091-21.333,5.739V106.667c0-23.531-19.136-42.667-42.667-42.667c-18.581,0-34.432,11.947-40.277,28.544 c-6.784-4.544-14.955-7.211-23.723-7.211c-23.531,0-42.667,19.136-42.667,42.667v181.333l-37.077-27.797 c-21.973-16.491-53.248-14.293-72.725,5.163c-12.48,12.48-12.48,32.768,0,45.248l151.915,151.936 C252.237,502.016,276.365,512,302.008,512h49.984c64.683,0,117.333-52.629,117.333-117.333V277.333 C469.325,253.803,450.189,234.667,426.659,234.667z M447.992,394.667c0,52.928-43.072,96-96,96h-49.984 c-19.947,0-38.699-7.765-52.821-21.867L97.272,316.864c-4.16-4.16-4.16-10.923,0-15.083c6.613-6.592,15.445-9.984,24.32-9.984 c7.211,0,14.464,2.24,20.544,6.805l54.123,40.597c3.243,2.432,7.595,2.816,11.179,1.003c3.605-1.813,5.888-5.504,5.888-9.536V128 c0-11.755,9.557-21.333,21.333-21.333s21.333,9.579,21.333,21.333v160c0,5.888,4.779,10.667,10.667,10.667 s10.667-4.779,10.667-10.667V106.667c0-11.755,9.557-21.333,21.333-21.333s21.333,9.579,21.333,21.333V288 c0,5.888,4.779,10.667,10.667,10.667s10.667-4.779,10.667-10.667v-32c0-11.755,9.557-21.333,21.333-21.333 s21.333,9.579,21.333,21.333v32c0,5.888,4.779,10.667,10.667,10.667s10.667-4.779,10.667-10.667v-10.667 c0-11.755,9.557-21.333,21.333-21.333s21.333,9.579,21.333,21.333V394.667z"/>
																							</g>
																						</g>
																					</symbol>
																					<symbol id="scroll-1" viewBox="0 0 512 512">
																						<title>scroll-1</title>
																						<path d="M445.583,245.125l-95.688-63.792c-20.917-13.958-49.542-13.958-70.458,0l-2.104,1.406V42.667 C277.333,19.135,258.188,0,234.667,0C211.146,0,192,19.135,192,42.667v285.479c0,5.375-3.542,8.135-5.063,9.073 c-1.521,0.948-5.563,2.854-10.375,0.469l-68.5-34.25c-6.25-3.125-13.229-4.771-20.208-4.771 c-24.917,0-45.188,20.271-45.188,45.188V352c0,2.958,1.229,5.781,3.396,7.802l123.125,114.896 C194.938,498.75,228.521,512,263.792,512h98.875c58.813,0,106.667-47.854,106.667-106.667V289.5 C469.333,271.625,460.458,255.042,445.583,245.125z"/>
																						<path d="M53.333,117.333h21.333c2.833,0,5.542-1.125,7.542-3.125l3.125-3.125v134.25C85.333,251.229,90.104,256,96,256h21.333 c5.896,0,10.667-4.771,10.667-10.667v-134.25l3.125,3.125c2,2,4.708,3.125,7.542,3.125H160c4.313,0,8.208-2.594,9.854-6.583 c1.646-3.99,0.729-8.573-2.313-11.625l-53.333-53.333c-2.083-2.083-4.813-3.125-7.542-3.125c-2.729,0-5.458,1.042-7.542,3.125 L45.792,99.125c-3.042,3.052-3.958,7.635-2.313,11.625C45.125,114.74,49.021,117.333,53.333,117.333z"/>
																					</symbol>
																					<symbol id="chevron-upwards-arrow" viewBox="0 0 337.085 337.086">
																						<title>chevron-upwards-arrow</title>
																						<path d="M168.54,0C75.619,0,0.012,75.609,0.012,168.543c0,92.93,75.606,168.543,168.528,168.543 c92.933,0,168.534-75.613,168.534-168.543C337.074,75.609,261.473,0,168.54,0z M271.405,224.327 c-2.407,2.402-5.561,3.615-8.713,3.615c-3.158,0-6.311-1.213-8.719-3.615L168.54,138.9l-85.424,85.427 c-4.816,4.815-12.631,4.815-17.447,0c-4.819-4.815-4.819-12.622,0-17.438l94.152-94.141c4.822-4.815,12.613-4.815,17.426,0 l94.152,94.141C276.221,211.705,276.221,219.512,271.405,224.327z"/>
																					</symbol>
																					<symbol id="arrow-pointing-upwards" viewBox="0 0 278.449 278.449">
																						<title>arrow-pointing-upwards</title>
																						<path d="M23.776,122.15c-3.099-1.107-4.405-3.549,0.664-8.752l85.538-86.016c12.985-13.066,25.719-27.24,29.913-27.382 c4.212-0.129,16.678,14.493,29.667,27.571l84.902,85.496c0,0,11.606,9.683-11.229,9.683c0,0-11.89,0-26.535,0 s-26.505,14.937-26.481,33.369l0.114,101.541c-1.062,20.83-22.481,20.788-22.481,20.788l-56.376-0.023 c-21.182-0.696-21.545-22.218-21.545-22.218l0.1-100.088c0.018-18.438-12.328-33.369-27.577-33.369 C47.191,122.757,29.567,124.24,23.776,122.15z"/>
																					</symbol>

																						<symbol id="pin" viewBox="0 0 376 376">
										<title>pin</title>
										<path
											xmlns="http://www.w3.org/2000/svg" style="" d="M316,136c0,23.36-6.24,45.2-17.12,64L188,368L77.12,200C66.24,181.2,60,159.36,60,136 C60,65.28,117.28,8,188,8S316,65.28,316,136z M252,136c0-35.36-28.64-64-64-64s-64,28.64-64,64s28.64,64,64,64S252,171.36,252,136z" fill="#4b3d1f" data-original="#cce4ff" class=""/>
											<g
												xmlns="http://www.w3.org/2000/svg">
												<path style="" d="M70.44,204.408l110.88,168c1.488,2.24,3.992,3.592,6.68,3.592s5.192-1.352,6.68-3.592l111.128-168.4 C317.712,183.432,324,159.912,324,136C324,61.008,262.992,0,188,0S52,61.008,52,136c0,23.912,6.288,47.432,18.192,68 C70.272,204.144,70.352,204.28,70.44,204.408z M188,16c66.168,0,120,53.832,120,120c0,21.104-5.544,41.848-15.8,59.592L188,353.48 L83.928,195.8C73.504,177.704,68,157.032,68,136C68,69.832,121.832,16,188,16z" fill="#ffffff" data-original="#007aff" class=""/>
												<path style="" d="M188,208c39.704,0,72-32.304,72-72s-32.296-72-72-72s-72,32.304-72,72S148.296,208,188,208z M188,80 c30.872,0,56,25.12,56,56s-25.128,56-56,56s-56-25.12-56-56S157.128,80,188,80z" fill="#ffffff" data-original="#007aff" class=""/>
											</g>
										</symbol>
																				</svg>
																				